<svg width="15" height="15" viewBox="0 0 15 15" fill="none" xmlns="http://www.w3.org/2000/svg">
<g clip-path="url(#clip0_640_8)">
<path d="M7.5 5C6.83696 5 6.20107 5.26339 5.73223 5.73223C5.26339 6.20107 5 6.83696 5 7.5C5 8.16304 5.26339 8.79893 5.73223 9.26777C6.20107 9.73661 6.83696 10 7.5 10C8.16304 10 8.79893 9.73661 9.26777 9.26777C9.73661 8.79893 10 8.16304 10 7.5C10 6.83696 9.73661 6.20107 9.26777 5.73223C8.79893 5.26339 8.16304 5 7.5 5Z" fill="black"/>
<path fill-rule="evenodd" clip-rule="evenodd" d="M4.5 0C3.30653 0 2.16193 0.474106 1.31802 1.31802C0.474106 2.16193 0 3.30653 0 4.5L0 10.5C0 11.6935 0.474106 12.8381 1.31802 13.682C2.16193 14.5259 3.30653 15 4.5 15H10.5C11.6935 15 12.8381 14.5259 13.682 13.682C14.5259 12.8381 15 11.6935 15 10.5V4.5C15 3.30653 14.5259 2.16193 13.682 1.31802C12.8381 0.474106 11.6935 0 10.5 0L4.5 0ZM4 7.5C4 6.57174 4.36875 5.6815 5.02513 5.02513C5.6815 4.36875 6.57174 4 7.5 4C8.42826 4 9.3185 4.36875 9.97487 5.02513C10.6313 5.6815 11 6.57174 11 7.5C11 8.42826 10.6313 9.3185 9.97487 9.97487C9.3185 10.6313 8.42826 11 7.5 11C6.57174 11 5.6815 10.6313 5.02513 9.97487C4.36875 9.3185 4 8.42826 4 7.5ZM11 4H12V3H11V4Z" fill="black"/>
</g>
<defs>
<clipPath id="clip0_640_8">
<rect width="15" height="15" fill="white"/>
</clipPath>
</defs>
</svg>
